Coordinates
version=1
nRows=19
nColumns=36
inDegrees=yes

Units are S.I. units (second, meters, Newtons, ...)
If the header above contains a line with 'inDegrees', this indicates whether rotational values are in degrees (yes) or radians (no).

endheader
time	pelvis_tilt	pelvis_list	pelvis_rotation	pelvis_tx	pelvis_ty	pelvis_tz	hip_flexion_r	hip_adduction_r	hip_rotation_r	knee_angle_r	knee_angle_r_beta	ankle_angle_r	subtalar_angle_r	mtp_angle_r	hip_flexion_l	hip_adduction_l	hip_rotation_l	knee_angle_l	knee_angle_l_beta	ankle_angle_l	subtalar_angle_l	mtp_angle_l	lumbar_extension	lumbar_bending	lumbar_rotation	arm_flex_r	arm_add_r	arm_rot_r	elbow_flex_r	pro_sup_r	arm_flex_l	arm_add_l	arm_rot_l	elbow_flex_l	pro_sup_l
      0.68000000	      0.05745354	     -1.20031238	     -1.41319764	      0.64778285	      1.01154686	     -0.21091150	    -13.61606295	      4.50469850	     -4.87031160	     22.68446750	      0.39591865	      5.46054929	     11.19265029	     -6.85443036	     20.64946140	      2.98697038	     -3.36686227	      1.60309205	      0.02797923	     -2.86945042	      2.01951967	     -6.85443036	     -9.41879192	     -1.94092064	     13.39113053	     -8.04356820	    -13.32531488	    -17.65046776	     74.77115197	    109.70458180	    -30.45257203	      1.89858723	    -20.79923961	     29.02613347	    101.47004523
      0.69000000	      0.10817956	     -0.82429263	     -1.37363910	      0.66379330	      1.01253731	     -0.21180824	    -12.41047195	      3.56355152	     -5.88344500	     26.03070283	      0.45432147	      3.06573467	     10.96073993	     -6.88296228	     19.90059544	      3.48484068	     -2.81492873	      1.72923192	      0.03018079	     -4.32046340	      0.82557567	     -6.88296228	     -9.28925472	     -2.29327338	     12.95713306	     -8.60167671	    -12.74687350	    -17.66616095	     74.31202433	    109.75904495	    -30.26085743	      1.94749061	    -20.74900778	     29.07662223	    101.40175233
      0.70000000	      0.32598345	     -0.35931979	     -1.31276121	      0.67958211	      1.01384368	     -0.21274555	    -11.17172439	      2.43727600	     -6.89697214	     29.59577052	      0.51654364	      0.23642897	     10.67321341	     -6.89090100	     19.07625946	      4.01803338	     -2.81102558	      2.11698012	      0.03694827	     -4.99564335	      0.63610877	     -6.89090100	     -9.39779848	     -2.74636840	     12.43411469	     -9.11083676	    -12.18834271	    -17.64140729	     73.87942742	    109.64120450	    -29.97365108	      1.97476777	    -20.69783579	     29.20786000	    101.33627810
      0.71000000	      0.17266439	      0.06935128	     -1.20929585	      0.69455575	      1.01473701	     -0.21381488	     -9.18088270	      1.31139485	     -7.78128905	     33.58071185	      0.58609399	     -2.82019233	      9.93309898	     -6.90882318	     18.73533287	      4.54388164	     -2.40696390	      2.60779198	      0.04551456	     -6.25297611	     -0.66450289	     -6.90882318	     -9.16449814	     -3.12643449	     11.79754911	     -9.52292406	    -11.62590820	    -17.59528778	     73.18491021	    109.63259553	    -29.60664139	      2.05757890	    -20.64026150	     29.42534777	    101.27654196
      0.72000000	      0.43423337	      0.66321660	     -1.12360536	      0.70944033	      1.01619819	     -0.21494189	     -7.55467975	     -0.10883071	     -8.62529932	     37.51410792	      0.65474470	     -6.17491914	      9.58393476	     -6.91592002	     17.94729743	      5.21995028	     -2.51694673	      3.18834144	      0.05564706	     -6.43836177	     -0.99754683	     -6.91592002	     -9.45019063	     -3.67248374	     11.12453965	     -9.92363977	    -11.08462650	    -17.54409926	     72.67452584	    109.52717338	    -29.11132299	      2.08126749	    -20.55601111	     29.64432371	    101.22666920
      0.73000000	      0.17956312	      1.14505581	     -1.00266337	      0.72340857	      1.01705485	     -0.21593201	     -5.13819171	     -1.31838879	     -9.11693054	     41.55735657	      0.72531270	     -9.75592511	      8.22133148	     -6.92976038	     17.85929088	      5.76216138	     -2.52786495	      3.95994082	      0.06911401	     -7.00776085	     -1.64019243	     -6.92976038	     -9.21470860	     -4.10898876	     10.38309660	    -10.22408450	    -10.57520836	    -17.40919642	     71.76975809	    109.52260520	    -28.58288063	      2.11098645	    -20.45800667	     30.02415060	    101.20382125
      0.74000000	      0.11171190	      1.69761926	     -0.91634396	      0.73707361	      1.01822629	     -0.21686788	     -2.87949288	     -2.60584849	     -9.40452354	     45.39649169	      0.79231825	    -13.09749353	      7.06284688	     -6.94383165	     17.52170004	      6.37740612	     -2.76239114	      4.67036535	      0.08151325	     -6.98933184	     -1.91317185	     -6.94383165	     -9.23867877	     -4.61156659	      9.61595015	    -10.46894698	    -10.06601240	    -17.26100312	     70.89142590	    109.62985778	    -27.92111288	      2.10709981	    -20.36658060	     30.38916972	    101.23568935
      0.75000000	      0.37615063	      2.33309490	     -0.86614482	      0.75058969	      1.01989885	     -0.21779737	     -1.00518479	     -3.96768871	     -9.47612387	     48.93268916	      0.85403654	    -15.62012058	      6.51652492	     -6.94835097	     16.69725861	      7.10012653	     -3.00840336	      5.17069557	      0.09024566	     -6.59538840	     -1.91998597	     -6.94835097	     -9.67494754	     -5.19275327	      8.85869719	    -10.71247620	     -9.54471898	    -17.24822071	     70.16337636	    109.62681580	    -27.10835550	      2.04657811	    -20.23376765	     30.68710586	    101.27231105
      0.76000000	      0.11861306	      2.79287014	     -0.82194824	      0.76346441	      1.02104508	     -0.21856993	      1.56955221	     -4.99798048	     -9.31816376	     52.35282331	      0.91372914	    -17.47812362	      4.87728432	     -6.95634868	     16.50414115	      7.61245811	     -3.44890436	      5.71631473	      0.09976851	     -6.27185340	     -1.74876360	     -6.95634868	     -9.52540090	     -5.56792961	      8.18724205	    -10.91617859	     -9.07726665	    -17.12389923	     68.96057936	    109.63813459	    -26.28919827	      1.97680214	    -20.03056327	     31.19587579	    101.33171407
      0.77000000	     -0.06278047	      3.08965782	     -0.83619189	      0.77602177	      1.02246735	     -0.21899759	      4.06026639	     -5.64837345	     -8.78709013	     55.39241961	      0.96678010	    -18.26944441	      3.31101743	     -6.96885519	     16.19878430	      7.93468405	     -3.86934451	      6.24676772	      0.10902666	     -5.68995650	     -1.45545664	     -6.96885519	     -9.50092598	     -5.79372761	      7.49939759	    -11.00584175	     -8.65723336	    -16.90341229	     67.71889006	    109.69257958	    -25.37557828	      1.87776311	    -19.82297844	     31.67780210	    101.38260389
      0.78000000	      0.09052978	      3.40718943	     -0.89811308	      0.78874445	      1.02446524	     -0.21952647	      6.12402903	     -6.28650010	     -8.21353227	     58.04364025	      1.01305263	    -17.89703751	      2.02877321	     -6.97530629	     15.28560952	      8.34225157	     -4.03711139	      6.34097136	      0.11067083	     -5.03505123	     -1.34147449	     -6.97530629	     -9.82337791	     -6.00436152	      6.91388920	    -11.19671708	     -8.24658185	    -16.86194365	     66.55055761	    109.67815962	    -24.34573775	      1.75378045	    -19.61342288	     32.08808819	    101.43499107
      0.79000000	     -0.00095254	      3.55696872	     -0.97844296	      0.80110710	      1.02627056	     -0.21986973	      8.49261535	     -6.56775391	     -7.46448000	     60.36819512	      1.05362377	    -16.77401607	      0.58181856	     -6.98628540	     14.65245695	      8.56101145	     -4.13618565	      6.45467129	      0.11265527	     -4.52617320	     -1.25484940	     -6.98628540	     -9.87073883	     -6.03435469	      6.31905765	    -11.28210638	     -7.91232694	    -16.69102768	     65.14149888	    109.70211815	    -23.32597537	      1.60959906	    -19.28338092	     32.62561682	    101.51136856
      0.80000000	      0.24085760	      3.61371236	     -1.12652019	      0.81360926	      1.02869238	     -0.22013145	     10.37257978	     -6.64436599	     -6.64389945	     62.12527093	      1.08429053	    -15.24353507	     -0.88836654	     -6.99044254	     13.47704757	      8.71459562	     -3.99430546	      6.26774100	      0.10939272	     -3.90145958	     -1.30713173	     -6.99044254	    -10.28970754	     -5.95328524	      5.87439861	    -11.45102375	     -7.58586653	    -16.66399823	     63.91612500	    109.66460448	    -22.14658370	      1.44127802	    -19.05703811	     33.08044545	    101.57352867
      0.81000000	      0.30240619	      3.57925964	     -1.22221799	      0.82606407	      1.03094987	     -0.22045112	     12.37783417	     -6.57818111	     -5.93162769	     63.47487661	      1.10784559	    -13.45236427	     -2.40767051	     -6.99548968	     12.46077951	      8.78692153	     -3.79492889	      5.99445849	      0.10462304	     -3.44601094	     -1.42149843	     -6.99548968	    -10.46886845	     -5.75696797	      5.38706862	    -11.60159262	     -7.31423044	    -16.61403105	     62.44823651	    109.62794734	    -21.02526989	      1.24876363	    -18.72700471	     33.65186577	    101.66054802
      0.82000000	      0.39519888	      3.44201345	     -1.32035963	      0.83842712	      1.03330815	     -0.22069761	     14.23002050	     -6.32002817	     -5.20303839	     64.30716754	      1.12237181	    -11.82918014	     -3.81679767	     -6.99956544	     11.38902496	      8.74806254	     -3.46281152	      5.69572557	      0.09940916	     -3.03888715	     -1.56399946	     -6.99956544	    -10.70200788	     -5.44418010	      4.92345373	    -11.76042666	     -7.08426057	    -16.56710623	     61.02439485	    109.58841861	    -19.86582172	      1.03525761	    -18.41434452	     34.26374350	    101.74989090
      0.83000000	      0.37794879	      3.29816940	     -1.29517012	      0.85075281	      1.03552331	     -0.22105045	     16.06093742	     -6.07639447	     -4.67081909	     64.69211079	      1.12909033	    -10.54202756	     -5.22410350	     -7.01066543	     10.41473032	      8.72563391	     -2.92299749	      5.34110996	      0.09321995	     -2.88454835	     -2.04240664	     -7.01066543	    -10.76265143	     -5.12765756	      4.16035397	    -11.70185506	     -6.91138850	    -16.34953013	     59.16851613	    109.62077190	    -18.86981240	      0.75090747	    -17.87758667	     35.04042561	    101.87998131
      0.84000000	      0.44892051	      3.01053054	     -1.31094053	      0.86310055	      1.03782448	     -0.22124091	     17.61707282	     -5.61720047	     -4.13497083	     64.55342664	      1.12666984	     -9.29971402	     -6.42956436	     -7.01420997	      9.33065725	      8.50703800	     -2.53340931	      4.96801126	      0.08670815	     -2.53543203	     -2.11409560	     -7.01420997	    -10.95110251	     -4.64477331	      3.78610830	    -12.04308989	     -6.75710778	    -16.36158520	     57.91216062	    109.58488852	    -17.62875020	      0.50232432	    -17.70768922	     35.76699977	    101.96141444
      0.85000000	      0.46784533	      2.73035079	     -1.22350860	      0.87541227	      1.03994779	     -0.22147673	     19.08207369	     -5.20163112	     -3.75177875	     64.02600423	      1.11746458	     -8.28655515	     -7.62816926	     -7.01790368	      8.31440102	      8.29449618	     -2.08327110	      4.60527810	      0.08037727	     -2.22694813	     -2.17470607	     -7.01790368	    -11.08232246	     -4.17064715	      3.26744967	    -12.29623356	     -6.56068473	    -16.46457615	     56.43305549	    109.53398198	    -16.48062422	      0.19805548	    -17.48267895	     36.62404879	    102.06413109
      0.86000000	      0.53355775	      2.48025261	     -1.02346468	      0.88767238	      1.04200584	     -0.22174219	     20.33969009	     -4.85488374	     -3.52473086	     63.07817186	      1.10092179	     -7.87077285	     -9.03205510	     -7.02808978	      7.24618931	      8.11635468	     -1.50414142	      4.22878899	      0.07380629	     -2.00545298	     -2.40467724	     -7.02808978	    -11.24722894	     -3.74392598	      2.35836063	    -12.22723584	     -6.35722119	    -16.47331771	     54.57354194	    109.56162870	    -15.53191054	     -0.17725441	    -17.20819106	     37.74864447	    102.19960885
